<svg id="visual" viewBox="0 0 960 540" width="960" height="540" xmlns="http://www.w3.org/2000/svg" xmlns:xlink="http://www.w3.org/1999/xlink" version="1.1"><rect x="0" y="0" width="960" height="540" fill="#0E0E0E"></rect><path d="M0 134L16 134C32 134 64 134 96 135.8C128 137.7 160 141.3 192 147.3C224 153.3 256 161.7 288 162.7C320 163.7 352 157.3 384 153.2C416 149 448 147 480 150.7C512 154.3 544 163.7 576 160.3C608 157 640 141 672 130.8C704 120.7 736 116.3 768 119.3C800 122.3 832 132.7 864 136.3C896 140 928 137 944 135.5L960 134L960 0L944 0C928 0 896 0 864 0C832 0 800 0 768 0C736 0 704 0 672 0C640 0 608 0 576 0C544 0 512 0 480 0C448 0 416 0 384 0C352 0 320 0 288 0C256 0 224 0 192 0C160 0 128 0 96 0C64 0 32 0 16 0L0 0Z" fill="#320a76"></path><path d="M0 135L16 132.7C32 130.3 64 125.7 96 121.8C128 118 160 115 192 120C224 125 256 138 288 144.2C320 150.3 352 149.7 384 148.3C416 147 448 145 480 136.8C512 128.7 544 114.3 576 113C608 111.7 640 123.3 672 130.7C704 138 736 141 768 139.7C800 138.3 832 132.7 864 133.2C896 133.7 928 140.3 944 143.7L960 147L960 0L944 0C928 0 896 0 864 0C832 0 800 0 768 0C736 0 704 0 672 0C640 0 608 0 576 0C544 0 512 0 480 0C448 0 416 0 384 0C352 0 320 0 288 0C256 0 224 0 192 0C160 0 128 0 96 0C64 0 32 0 16 0L0 0Z" fill="#240d68"></path><path d="M0 110L16 108C32 106 64 102 96 97.8C128 93.7 160 89.3 192 88.7C224 88 256 91 288 93.7C320 96.3 352 98.7 384 100.2C416 101.7 448 102.3 480 102.7C512 103 544 103 576 104.8C608 106.7 640 110.3 672 113C704 115.7 736 117.3 768 118.5C800 119.7 832 120.3 864 115.7C896 111 928 101 944 96L960 91L960 0L944 0C928 0 896 0 864 0C832 0 800 0 768 0C736 0 704 0 672 0C640 0 608 0 576 0C544 0 512 0 480 0C448 0 416 0 384 0C352 0 320 0 288 0C256 0 224 0 192 0C160 0 128 0 96 0C64 0 32 0 16 0L0 0Z" fill="#170d5a"></path><path d="M0 93L16 91.2C32 89.3 64 85.7 96 81.5C128 77.3 160 72.7 192 70.2C224 67.7 256 67.3 288 71.2C320 75 352 83 384 80.8C416 78.7 448 66.3 480 67.5C512 68.7 544 83.3 576 88.3C608 93.3 640 88.7 672 87.2C704 85.7 736 87.3 768 88.7C800 90 832 91 864 92.2C896 93.3 928 94.7 944 95.3L960 96L960 0L944 0C928 0 896 0 864 0C832 0 800 0 768 0C736 0 704 0 672 0C640 0 608 0 576 0C544 0 512 0 480 0C448 0 416 0 384 0C352 0 320 0 288 0C256 0 224 0 192 0C160 0 128 0 96 0C64 0 32 0 16 0L0 0Z" fill="#0b0c4c"></path><path d="M0 59L16 56.7C32 54.3 64 49.7 96 46.7C128 43.7 160 42.3 192 41.5C224 40.7 256 40.3 288 44.8C320 49.3 352 58.7 384 60C416 61.3 448 54.7 480 54.5C512 54.3 544 60.7 576 60.5C608 60.3 640 53.7 672 54.2C704 54.7 736 62.3 768 63.3C800 64.3 832 58.7 864 57.5C896 56.3 928 59.7 944 61.3L960 63L960 0L944 0C928 0 896 0 864 0C832 0 800 0 768 0C736 0 704 0 672 0C640 0 608 0 576 0C544 0 512 0 480 0C448 0 416 0 384 0C352 0 320 0 288 0C256 0 224 0 192 0C160 0 128 0 96 0C64 0 32 0 16 0L0 0Z" fill="#05083e"></path><path d="M0 17L16 19.7C32 22.3 64 27.7 96 32.3C128 37 160 41 192 39.7C224 38.3 256 31.7 288 28.3C320 25 352 25 384 27C416 29 448 33 480 34.5C512 36 544 35 576 32.7C608 30.3 640 26.7 672 28C704 29.3 736 35.7 768 36C800 36.3 832 30.7 864 31C896 31.3 928 37.7 944 40.8L960 44L960 0L944 0C928 0 896 0 864 0C832 0 800 0 768 0C736 0 704 0 672 0C640 0 608 0 576 0C544 0 512 0 480 0C448 0 416 0 384 0C352 0 320 0 288 0C256 0 224 0 192 0C160 0 128 0 96 0C64 0 32 0 16 0L0 0Z" fill="#050030"></path></svg>