<svg id="visual" viewBox="0 0 960 540" width="960" height="540" xmlns="http://www.w3.org/2000/svg" xmlns:xlink="http://www.w3.org/1999/xlink" version="1.1"><rect x="0" y="0" width="960" height="540" fill="#0e0e0e"></rect><path d="M0 422L69 413L137 380L206 386L274 374L343 394L411 418L480 399L549 380L617 424L686 434L754 411L823 387L891 386L960 436L960 541L891 541L823 541L754 541L686 541L617 541L549 541L480 541L411 541L343 541L274 541L206 541L137 541L69 541L0 541Z" fill="#871400"></path><path d="M0 429L69 422L137 443L206 423L274 412L343 393L411 428L480 447L549 413L617 438L686 404L754 448L823 399L891 432L960 404L960 541L891 541L823 541L754 541L686 541L617 541L549 541L480 541L411 541L343 541L274 541L206 541L137 541L69 541L0 541Z" fill="#972402"></path><path d="M0 439L69 415L137 423L206 410L274 410L343 436L411 412L480 431L549 411L617 414L686 446L754 414L823 416L891 419L960 419L960 541L891 541L823 541L754 541L686 541L617 541L549 541L480 541L411 541L343 541L274 541L206 541L137 541L69 541L0 541Z" fill="#a63303"></path><path d="M0 445L69 455L137 441L206 432L274 465L343 437L411 429L480 451L549 464L617 448L686 453L754 428L823 447L891 458L960 464L960 541L891 541L823 541L754 541L686 541L617 541L549 541L480 541L411 541L343 541L274 541L206 541L137 541L69 541L0 541Z" fill="#b64103"></path><path d="M0 465L69 469L137 468L206 453L274 450L343 469L411 441L480 449L549 471L617 464L686 461L754 477L823 479L891 467L960 464L960 541L891 541L823 541L754 541L686 541L617 541L549 541L480 541L411 541L343 541L274 541L206 541L137 541L69 541L0 541Z" fill="#c54f03"></path><path d="M0 484L69 476L137 470L206 487L274 466L343 489L411 485L480 468L549 465L617 474L686 477L754 493L823 486L891 474L960 470L960 541L891 541L823 541L754 541L686 541L617 541L549 541L480 541L411 541L343 541L274 541L206 541L137 541L69 541L0 541Z" fill="#d45e03"></path><path d="M0 478L69 493L137 486L206 475L274 475L343 492L411 486L480 476L549 476L617 502L686 483L754 484L823 495L891 495L960 503L960 541L891 541L823 541L754 541L686 541L617 541L549 541L480 541L411 541L343 541L274 541L206 541L137 541L69 541L0 541Z" fill="#e36c02"></path><path d="M0 507L69 495L137 507L206 506L274 492L343 504L411 496L480 514L549 503L617 506L686 514L754 507L823 508L891 505L960 512L960 541L891 541L823 541L754 541L686 541L617 541L549 541L480 541L411 541L343 541L274 541L206 541L137 541L69 541L0 541Z" fill="#f17c01"></path><path d="M0 525L69 525L137 524L206 509L274 512L343 513L411 523L480 514L549 523L617 515L686 513L754 515L823 524L891 515L960 519L960 541L891 541L823 541L754 541L686 541L617 541L549 541L480 541L411 541L343 541L274 541L206 541L137 541L69 541L0 541Z" fill="#ff8b00"></path></svg>