<svg id="visual" viewBox="0 0 960 540" width="960" height="540" xmlns="http://www.w3.org/2000/svg" xmlns:xlink="http://www.w3.org/1999/xlink" version="1.1"><rect x="0" y="0" width="960" height="540" fill="#0E0E0E"></rect><path d="M0 141L22.8 137.8C45.7 134.7 91.3 128.3 137 131.5C182.7 134.7 228.3 147.3 274 151.2C319.7 155 365.3 150 411.2 150.5C457 151 503 157 548.8 153.2C594.7 149.3 640.3 135.7 686 133.5C731.7 131.3 777.3 140.7 823 145.7C868.7 150.7 914.3 151.3 937.2 151.7L960 152L960 0L937.2 0C914.3 0 868.7 0 823 0C777.3 0 731.7 0 686 0C640.3 0 594.7 0 548.8 0C503 0 457 0 411.2 0C365.3 0 319.7 0 274 0C228.3 0 182.7 0 137 0C91.3 0 45.7 0 22.8 0L0 0Z" fill="#c4562c"></path><path d="M0 91L22.8 92.3C45.7 93.7 91.3 96.3 137 97C182.7 97.7 228.3 96.3 274 96.8C319.7 97.3 365.3 99.7 411.2 98.5C457 97.3 503 92.7 548.8 98.7C594.7 104.7 640.3 121.3 686 123.5C731.7 125.7 777.3 113.3 823 105.8C868.7 98.3 914.3 95.7 937.2 94.3L960 93L960 0L937.2 0C914.3 0 868.7 0 823 0C777.3 0 731.7 0 686 0C640.3 0 594.7 0 548.8 0C503 0 457 0 411.2 0C365.3 0 319.7 0 274 0C228.3 0 182.7 0 137 0C91.3 0 45.7 0 22.8 0L0 0Z" fill="#a8472c"></path><path d="M0 84L22.8 83.7C45.7 83.3 91.3 82.7 137 88.5C182.7 94.3 228.3 106.7 274 109.7C319.7 112.7 365.3 106.3 411.2 98.7C457 91 503 82 548.8 79C594.7 76 640.3 79 686 80.3C731.7 81.7 777.3 81.3 823 85.7C868.7 90 914.3 99 937.2 103.5L960 108L960 0L937.2 0C914.3 0 868.7 0 823 0C777.3 0 731.7 0 686 0C640.3 0 594.7 0 548.8 0C503 0 457 0 411.2 0C365.3 0 319.7 0 274 0C228.3 0 182.7 0 137 0C91.3 0 45.7 0 22.8 0L0 0Z" fill="#8b3a29"></path><path d="M0 91L22.8 91.2C45.7 91.3 91.3 91.7 137 86C182.7 80.3 228.3 68.7 274 65C319.7 61.3 365.3 65.7 411.2 66.5C457 67.3 503 64.7 548.8 65.5C594.7 66.3 640.3 70.7 686 70.2C731.7 69.7 777.3 64.3 823 64.3C868.7 64.3 914.3 69.7 937.2 72.3L960 75L960 0L937.2 0C914.3 0 868.7 0 823 0C777.3 0 731.7 0 686 0C640.3 0 594.7 0 548.8 0C503 0 457 0 411.2 0C365.3 0 319.7 0 274 0C228.3 0 182.7 0 137 0C91.3 0 45.7 0 22.8 0L0 0Z" fill="#6e2e25"></path><path d="M0 69L22.8 64.7C45.7 60.3 91.3 51.7 137 53.2C182.7 54.7 228.3 66.3 274 70C319.7 73.7 365.3 69.3 411.2 65.7C457 62 503 59 548.8 55.5C594.7 52 640.3 48 686 47.5C731.7 47 777.3 50 823 54.3C868.7 58.7 914.3 64.3 937.2 67.2L960 70L960 0L937.2 0C914.3 0 868.7 0 823 0C777.3 0 731.7 0 686 0C640.3 0 594.7 0 548.8 0C503 0 457 0 411.2 0C365.3 0 319.7 0 274 0C228.3 0 182.7 0 137 0C91.3 0 45.7 0 22.8 0L0 0Z" fill="#52231f"></path><path d="M0 39L22.8 40.3C45.7 41.7 91.3 44.3 137 43.3C182.7 42.3 228.3 37.7 274 36.2C319.7 34.7 365.3 36.3 411.2 35.8C457 35.3 503 32.7 548.8 31.3C594.7 30 640.3 30 686 32.5C731.7 35 777.3 40 823 42.7C868.7 45.3 914.3 45.7 937.2 45.8L960 46L960 0L937.2 0C914.3 0 868.7 0 823 0C777.3 0 731.7 0 686 0C640.3 0 594.7 0 548.8 0C503 0 457 0 411.2 0C365.3 0 319.7 0 274 0C228.3 0 182.7 0 137 0C91.3 0 45.7 0 22.8 0L0 0Z" fill="#361a18"></path><path d="M0 20L22.8 20.3C45.7 20.7 91.3 21.3 137 22.3C182.7 23.3 228.3 24.7 274 26.7C319.7 28.7 365.3 31.3 411.2 32C457 32.7 503 31.3 548.8 28.7C594.7 26 640.3 22 686 22.7C731.7 23.3 777.3 28.7 823 29.3C868.7 30 914.3 26 937.2 24L960 22L960 0L937.2 0C914.3 0 868.7 0 823 0C777.3 0 731.7 0 686 0C640.3 0 594.7 0 548.8 0C503 0 457 0 411.2 0C365.3 0 319.7 0 274 0C228.3 0 182.7 0 137 0C91.3 0 45.7 0 22.8 0L0 0Z" fill="#1d0f0e"></path></svg>