<svg id="visual" viewBox="0 0 960 540" width="960" height="540" xmlns="http://www.w3.org/2000/svg" xmlns:xlink="http://www.w3.org/1999/xlink" version="1.1"><rect x="0" y="0" width="960" height="540" fill="#0E0E0E"></rect><path d="M0 423L87 403L175 370L262 415L349 367L436 410L524 386L611 386L698 373L785 413L873 389L960 389L960 541L873 541L785 541L698 541L611 541L524 541L436 541L349 541L262 541L175 541L87 541L0 541Z" fill="#18002f"></path><path d="M0 429L87 407L175 409L262 438L349 408L436 395L524 401L611 388L698 438L785 388L873 416L960 414L960 541L873 541L785 541L698 541L611 541L524 541L436 541L349 541L262 541L175 541L87 541L0 541Z" fill="#1d053d"></path><path d="M0 465L87 417L175 438L262 461L349 453L436 430L524 429L611 417L698 463L785 428L873 417L960 414L960 541L873 541L785 541L698 541L611 541L524 541L436 541L349 541L262 541L175 541L87 541L0 541Z" fill="#24064b"></path><path d="M0 464L87 463L175 464L262 462L349 431L436 457L524 446L611 452L698 467L785 450L873 480L960 476L960 541L873 541L785 541L698 541L611 541L524 541L436 541L349 541L262 541L175 541L87 541L0 541Z" fill="#2b0659"></path><path d="M0 465L87 465L175 459L262 480L349 462L436 456L524 462L611 491L698 458L785 487L873 488L960 474L960 541L873 541L785 541L698 541L611 541L524 541L436 541L349 541L262 541L175 541L87 541L0 541Z" fill="#330568"></path><path d="M0 477L87 492L175 500L262 500L349 505L436 496L524 495L611 504L698 495L785 500L873 491L960 486L960 541L873 541L785 541L698 541L611 541L524 541L436 541L349 541L262 541L175 541L87 541L0 541Z" fill="#3c0377"></path><path d="M0 520L87 518L175 522L262 507L349 508L436 512L524 521L611 505L698 518L785 502L873 518L960 505L960 541L873 541L785 541L698 541L611 541L524 541L436 541L349 541L262 541L175 541L87 541L0 541Z" fill="#450086"></path></svg>