<svg id="visual" viewBox="0 0 960 540" width="960" height="540" xmlns="http://www.w3.org/2000/svg" xmlns:xlink="http://www.w3.org/1999/xlink" version="1.1"><path d="M0 125L16 122.3C32 119.7 64 114.3 96 109C128 103.7 160 98.3 192 100.2C224 102 256 111 288 118.2C320 125.3 352 130.7 384 125.2C416 119.7 448 103.3 480 102.5C512 101.7 544 116.3 576 112.8C608 109.3 640 87.7 672 94.8C704 102 736 138 768 143.3C800 148.7 832 123.3 864 109.8C896 96.3 928 94.7 944 93.8L960 93L960 0L944 0C928 0 896 0 864 0C832 0 800 0 768 0C736 0 704 0 672 0C640 0 608 0 576 0C544 0 512 0 480 0C448 0 416 0 384 0C352 0 320 0 288 0C256 0 224 0 192 0C160 0 128 0 96 0C64 0 32 0 16 0L0 0Z" fill="#ff8b01"></path><path d="M0 158L16 156.2C32 154.3 64 150.7 96 143.3C128 136 160 125 192 127.7C224 130.3 256 146.7 288 155.7C320 164.7 352 166.3 384 159.2C416 152 448 136 480 136C512 136 544 152 576 151C608 150 640 132 672 139.3C704 146.7 736 179.3 768 180.3C800 181.3 832 150.7 864 138.8C896 127 928 134 944 137.5L960 141L960 91L944 91.8C928 92.7 896 94.3 864 107.8C832 121.3 800 146.7 768 141.3C736 136 704 100 672 92.8C640 85.7 608 107.3 576 110.8C544 114.3 512 99.7 480 100.5C448 101.3 416 117.7 384 123.2C352 128.7 320 123.3 288 116.2C256 109 224 100 192 98.2C160 96.3 128 101.7 96 107C64 112.3 32 117.7 16 120.3L0 123Z" fill="#e6751a"></path><path d="M0 249L16 256.3C32 263.7 64 278.3 96 277.5C128 276.7 160 260.3 192 250.3C224 240.3 256 236.7 288 245.7C320 254.7 352 276.3 384 276.3C416 276.3 448 254.7 480 250.2C512 245.7 544 258.3 576 265.5C608 272.7 640 274.3 672 281.5C704 288.7 736 301.3 768 300.5C800 299.7 832 285.3 864 281.8C896 278.3 928 285.7 944 289.3L960 293L960 139L944 135.5C928 132 896 125 864 136.8C832 148.7 800 179.3 768 178.3C736 177.3 704 144.7 672 137.3C640 130 608 148 576 149C544 150 512 134 480 134C448 134 416 150 384 157.2C352 164.3 320 162.7 288 153.7C256 144.7 224 128.3 192 125.7C160 123 128 134 96 141.3C64 148.7 32 152.3 16 154.2L0 156Z" fill="#cb6123"></path><path d="M0 314L16 318.5C32 323 64 332 96 324.8C128 317.7 160 294.3 192 286.3C224 278.3 256 285.7 288 296.5C320 307.3 352 321.7 384 318.8C416 316 448 296 480 294.2C512 292.3 544 308.7 576 314.2C608 319.7 640 314.3 672 320.7C704 327 736 345 768 345.8C800 346.7 832 330.3 864 323.2C896 316 928 318 944 319L960 320L960 291L944 287.3C928 283.7 896 276.3 864 279.8C832 283.3 800 297.7 768 298.5C736 299.3 704 286.7 672 279.5C640 272.3 608 270.7 576 263.5C544 256.3 512 243.7 480 248.2C448 252.7 416 274.3 384 274.3C352 274.3 320 252.7 288 243.7C256 234.7 224 238.3 192 248.3C160 258.3 128 274.7 96 275.5C64 276.3 32 261.7 16 254.3L0 247Z" fill="#ae5027"></path><path d="M0 384L16 384C32 384 64 384 96 379.5C128 375 160 366 192 363.3C224 360.7 256 364.3 288 368C320 371.7 352 375.3 384 374.5C416 373.7 448 368.3 480 366.5C512 364.7 544 366.3 576 367.2C608 368 640 368 672 375.2C704 382.3 736 396.7 768 399.3C800 402 832 393 864 389.5C896 386 928 388 944 389L960 390L960 318L944 317C928 316 896 314 864 321.2C832 328.3 800 344.7 768 343.8C736 343 704 325 672 318.7C640 312.3 608 317.7 576 312.2C544 306.7 512 290.3 480 292.2C448 294 416 314 384 316.8C352 319.7 320 305.3 288 294.5C256 283.7 224 276.3 192 284.3C160 292.3 128 315.7 96 322.8C64 330 32 321 16 316.5L0 312Z" fill="#914027"></path><path d="M0 422L16 422C32 422 64 422 96 417.5C128 413 160 404 192 400.5C224 397 256 399 288 400C320 401 352 401 384 400C416 399 448 397 480 397C512 397 544 399 576 400C608 401 640 401 672 409C704 417 736 433 768 433.8C800 434.7 832 420.3 864 414C896 407.7 928 409.3 944 410.2L960 411L960 388L944 387C928 386 896 384 864 387.5C832 391 800 400 768 397.3C736 394.7 704 380.3 672 373.2C640 366 608 366 576 365.2C544 364.3 512 362.7 480 364.5C448 366.3 416 371.7 384 372.5C352 373.3 320 369.7 288 366C256 362.3 224 358.7 192 361.3C160 364 128 373 96 377.5C64 382 32 382 16 382L0 382Z" fill="#733224"></path><path d="M0 444L16 444.8C32 445.7 64 447.3 96 447.3C128 447.3 160 445.7 192 444.8C224 444 256 444 288 441.3C320 438.7 352 433.3 384 431.5C416 429.7 448 431.3 480 433C512 434.7 544 436.3 576 437.2C608 438 640 438 672 445.3C704 452.7 736 467.3 768 468.3C800 469.3 832 456.7 864 448.5C896 440.3 928 436.7 944 434.8L960 433L960 409L944 408.2C928 407.3 896 405.7 864 412C832 418.3 800 432.7 768 431.8C736 431 704 415 672 407C640 399 608 399 576 398C544 397 512 395 480 395C448 395 416 397 384 398C352 399 320 399 288 398C256 397 224 395 192 398.5C160 402 128 411 96 415.5C64 420 32 420 16 420L0 420Z" fill="#552620"></path><path d="M0 503L16 502.2C32 501.3 64 499.7 96 500.7C128 501.7 160 505.3 192 508C224 510.7 256 512.3 288 513.2C320 514 352 514 384 511.3C416 508.7 448 503.3 480 502.5C512 501.7 544 505.3 576 508C608 510.7 640 512.3 672 513.2C704 514 736 514 768 513.2C800 512.3 832 510.7 864 510.7C896 510.7 928 512.3 944 513.2L960 514L960 431L944 432.8C928 434.7 896 438.3 864 446.5C832 454.7 800 467.3 768 466.3C736 465.3 704 450.7 672 443.3C640 436 608 436 576 435.2C544 434.3 512 432.7 480 431C448 429.3 416 427.7 384 429.5C352 431.3 320 436.7 288 439.3C256 442 224 442 192 442.8C160 443.7 128 445.3 96 445.3C64 445.3 32 443.7 16 442.8L0 442Z" fill="#381a19"></path><path d="M0 541L16 541C32 541 64 541 96 541C128 541 160 541 192 541C224 541 256 541 288 541C320 541 352 541 384 541C416 541 448 541 480 541C512 541 544 541 576 541C608 541 640 541 672 541C704 541 736 541 768 541C800 541 832 541 864 541C896 541 928 541 944 541L960 541L960 512L944 511.2C928 510.3 896 508.7 864 508.7C832 508.7 800 510.3 768 511.2C736 512 704 512 672 511.2C640 510.3 608 508.7 576 506C544 503.3 512 499.7 480 500.5C448 501.3 416 506.7 384 509.3C352 512 320 512 288 511.2C256 510.3 224 508.7 192 506C160 503.3 128 499.7 96 498.7C64 497.7 32 499.3 16 500.2L0 501Z" fill="#1d0f0e"></path></svg>