<svg id="visual" viewBox="0 0 960 540" width="960" height="540" xmlns="http://www.w3.org/2000/svg" xmlns:xlink="http://www.w3.org/1999/xlink" version="1.1"><path d="M0 109L13.3 109.8C26.7 110.7 53.3 112.3 80 108.7C106.7 105 133.3 96 160 85.3C186.7 74.7 213.3 62.3 240 61.5C266.7 60.7 293.3 71.3 320 79.3C346.7 87.3 373.3 92.7 400 95.3C426.7 98 453.3 98 480 99.8C506.7 101.7 533.3 105.3 560 106.3C586.7 107.3 613.3 105.7 640 104.8C666.7 104 693.3 104 720 97.7C746.7 91.3 773.3 78.7 800 75.8C826.7 73 853.3 80 880 77.3C906.7 74.7 933.3 62.3 946.7 56.2L960 50L960 0L946.7 0C933.3 0 906.7 0 880 0C853.3 0 826.7 0 800 0C773.3 0 746.7 0 720 0C693.3 0 666.7 0 640 0C613.3 0 586.7 0 560 0C533.3 0 506.7 0 480 0C453.3 0 426.7 0 400 0C373.3 0 346.7 0 320 0C293.3 0 266.7 0 240 0C213.3 0 186.7 0 160 0C133.3 0 106.7 0 80 0C53.3 0 26.7 0 13.3 0L0 0Z" fill="#450186"></path><path d="M0 249L13.3 241.8C26.7 234.7 53.3 220.3 80 221.3C106.7 222.3 133.3 238.7 160 245.8C186.7 253 213.3 251 240 257.3C266.7 263.7 293.3 278.3 320 276.7C346.7 275 373.3 257 400 254.2C426.7 251.3 453.3 263.7 480 270.8C506.7 278 533.3 280 560 270.2C586.7 260.3 613.3 238.7 640 225.2C666.7 211.7 693.3 206.3 720 208.2C746.7 210 773.3 219 800 217.2C826.7 215.3 853.3 202.7 880 202.7C906.7 202.7 933.3 215.3 946.7 221.7L960 228L960 48L946.7 54.2C933.3 60.3 906.7 72.7 880 75.3C853.3 78 826.7 71 800 73.8C773.3 76.7 746.7 89.3 720 95.7C693.3 102 666.7 102 640 102.8C613.3 103.7 586.7 105.3 560 104.3C533.3 103.3 506.7 99.7 480 97.8C453.3 96 426.7 96 400 93.3C373.3 90.7 346.7 85.3 320 77.3C293.3 69.3 266.7 58.7 240 59.5C213.3 60.3 186.7 72.7 160 83.3C133.3 94 106.7 103 80 106.7C53.3 110.3 26.7 108.7 13.3 107.8L0 107Z" fill="#320a76"></path><path d="M0 347L13.3 335.2C26.7 323.3 53.3 299.7 80 296.8C106.7 294 133.3 312 160 322.8C186.7 333.7 213.3 337.3 240 339.2C266.7 341 293.3 341 320 334.7C346.7 328.3 373.3 315.7 400 318.3C426.7 321 453.3 339 480 348C506.7 357 533.3 357 560 346.3C586.7 335.7 613.3 314.3 640 295.5C666.7 276.7 693.3 260.3 720 261.2C746.7 262 773.3 280 800 277.3C826.7 274.7 853.3 251.3 880 254C906.7 256.7 933.3 285.3 946.7 299.7L960 314L960 226L946.7 219.7C933.3 213.3 906.7 200.7 880 200.7C853.3 200.7 826.7 213.3 800 215.2C773.3 217 746.7 208 720 206.2C693.3 204.3 666.7 209.7 640 223.2C613.3 236.7 586.7 258.3 560 268.2C533.3 278 506.7 276 480 268.8C453.3 261.7 426.7 249.3 400 252.2C373.3 255 346.7 273 320 274.7C293.3 276.3 266.7 261.7 240 255.3C213.3 249 186.7 251 160 243.8C133.3 236.7 106.7 220.3 80 219.3C53.3 218.3 26.7 232.7 13.3 239.8L0 247Z" fill="#210e65"></path><path d="M0 384L13.3 373.3C26.7 362.7 53.3 341.3 80 342.3C106.7 343.3 133.3 366.7 160 377.3C186.7 388 213.3 386 240 384.2C266.7 382.3 293.3 380.7 320 377.2C346.7 373.7 373.3 368.3 400 374.7C426.7 381 453.3 399 480 404.3C506.7 409.7 533.3 402.3 560 387C586.7 371.7 613.3 348.3 640 333C666.7 317.7 693.3 310.3 720 312.2C746.7 314 773.3 325 800 322.3C826.7 319.7 853.3 303.3 880 306.8C906.7 310.3 933.3 333.7 946.7 345.3L960 357L960 312L946.7 297.7C933.3 283.3 906.7 254.7 880 252C853.3 249.3 826.7 272.7 800 275.3C773.3 278 746.7 260 720 259.2C693.3 258.3 666.7 274.7 640 293.5C613.3 312.3 586.7 333.7 560 344.3C533.3 355 506.7 355 480 346C453.3 337 426.7 319 400 316.3C373.3 313.7 346.7 326.3 320 332.7C293.3 339 266.7 339 240 337.2C213.3 335.3 186.7 331.7 160 320.8C133.3 310 106.7 292 80 294.8C53.3 297.7 26.7 321.3 13.3 333.2L0 345Z" fill="#120e53"></path><path d="M0 482L13.3 479.2C26.7 476.3 53.3 470.7 80 467.8C106.7 465 133.3 465 160 467.8C186.7 470.7 213.3 476.3 240 476.3C266.7 476.3 293.3 470.7 320 473.3C346.7 476 373.3 487 400 494.3C426.7 501.7 453.3 505.3 480 504.3C506.7 503.3 533.3 497.7 560 494C586.7 490.3 613.3 488.7 640 491.5C666.7 494.3 693.3 501.7 720 504.3C746.7 507 773.3 505 800 501.3C826.7 497.7 853.3 492.3 880 487.8C906.7 483.3 933.3 479.7 946.7 477.8L960 476L960 355L946.7 343.3C933.3 331.7 906.7 308.3 880 304.8C853.3 301.3 826.7 317.7 800 320.3C773.3 323 746.7 312 720 310.2C693.3 308.3 666.7 315.7 640 331C613.3 346.3 586.7 369.7 560 385C533.3 400.3 506.7 407.7 480 402.3C453.3 397 426.7 379 400 372.7C373.3 366.3 346.7 371.7 320 375.2C293.3 378.7 266.7 380.3 240 382.2C213.3 384 186.7 386 160 375.3C133.3 364.7 106.7 341.3 80 340.3C53.3 339.3 26.7 360.7 13.3 371.3L0 382Z" fill="#060a41"></path><path d="M0 541L13.3 541C26.7 541 53.3 541 80 541C106.7 541 133.3 541 160 541C186.7 541 213.3 541 240 541C266.7 541 293.3 541 320 541C346.7 541 373.3 541 400 541C426.7 541 453.3 541 480 541C506.7 541 533.3 541 560 541C586.7 541 613.3 541 640 541C666.7 541 693.3 541 720 541C746.7 541 773.3 541 800 541C826.7 541 853.3 541 880 541C906.7 541 933.3 541 946.7 541L960 541L960 474L946.7 475.8C933.3 477.7 906.7 481.3 880 485.8C853.3 490.3 826.7 495.7 800 499.3C773.3 503 746.7 505 720 502.3C693.3 499.7 666.7 492.3 640 489.5C613.3 486.7 586.7 488.3 560 492C533.3 495.7 506.7 501.3 480 502.3C453.3 503.3 426.7 499.7 400 492.3C373.3 485 346.7 474 320 471.3C293.3 468.7 266.7 474.3 240 474.3C213.3 474.3 186.7 468.7 160 465.8C133.3 463 106.7 463 80 465.8C53.3 468.7 26.7 474.3 13.3 477.2L0 480Z" fill="#050030"></path></svg>